<svg width="612" height="614" viewBox="0 0 612 614" fill="none" xmlns="http://www.w3.org/2000/svg">
<path d="M329.234 130.215C329.234 233.173 329.234 281.943 329.234 281.943C329.234 281.943 410.517 287.362 480.962 281.943C551.408 276.524 600.177 206.079 600.177 168.147C600.177 130.215 600.177 11 600.177 11C439.774 11.748 329.234 27.2562 329.234 130.215Z" stroke="#0f3c5a" stroke-width="21.6754"/>
<path d="M281.943 130.215C281.943 233.173 281.943 281.943 281.943 281.943C281.943 281.943 200.66 287.362 130.215 281.943C59.7697 276.524 11 206.079 11 168.147C11 130.215 11 11 11 11C171.403 11.748 281.943 27.2562 281.943 130.215Z" stroke="#0f3c5a" stroke-width="21.6754"/>
<path d="M281.943 483.372C281.943 380.413 281.943 331.644 281.943 331.644C281.943 331.644 200.66 326.225 130.215 331.644C59.7697 337.063 11 407.508 11 445.44C11 483.372 11 602.587 11 602.587C171.403 601.839 281.943 586.331 281.943 483.372Z" stroke="#0f3c5a" stroke-width="21.6754"/>
<path d="M589.061 487.905H366.221C368.922 536.524 411.239 575.24 462.11 575.24C499.475 575.24 534.139 552.731 548.095 518.967H582.759C564.751 570.738 516.582 605.852 463.01 605.852C390.081 605.852 332.908 548.679 332.908 475.75C332.908 404.171 389.18 347.898 460.309 347.898C508.929 347.898 552.596 373.558 574.205 414.975C585.01 435.684 589.061 455.041 589.061 487.905ZM367.121 457.743H555.748C544.493 408.673 508.028 378.51 460.309 378.51C413.49 378.51 376.125 410.473 367.121 457.743Z" fill="#0f3c5a"/>
</svg>
